# xmcd
#
# Track frame offsets:
#	150
#	13158
#	26295
#	39698
#	53260
#	66460
#	77810
#	93838
#	107088
#	120713
#	135998
#	149960
#	162700
#	177028
#	192383
#	203995
#	219658
#	232058
#	245540
#	262118
#	274388
#	285100
#	299275
#
# Disc length: 4161 seconds
#
# Revision: 0
# Processed by: cddbd v1.4PL0 Copyright (c) Steve Scherf et al.
# Submitted via: EasyCDDAExtractor 4.5.0.2
#
DISCID=62103f17
DTITLE=Giorgos Dalaras - 2 LP SE 1 CD
DYEAR=1991
DGENRE=Greek Old Songs
TTITLE0=O Ouranos Fevgei Varis
TTITLE1=Moudose o plastis tin kardia
TTITLE2=Pounai ta Xronia
TTITLE3=Pairno tin Aniforia
TTITLE4=Pio dromo na dialexo
TTITLE5=An einai narthis
TTITLE6=To Limani
TTITLE7=S ` Agapo 
TTITLE8=Rixe mes` tis floges tin agapi mou 
TTITLE9=Itane Aprilis Minas 
TTITLE10=2 louloudia se mia glastra
TTITLE11=Kapou sta Petralona
TTITLE12=Natane to 21
TTITLE13=Me ekopsan me xorisan sta dio
TTITLE14=Dose mou to xeri sou 
TTITLE15=An dis ston ipno sou erimia
TTITLE16=Etsi ein` oi anthropoi
TTITLE17=Orxistra ( Pou nai ta Xronia) 
TTITLE18=Kapou Niktonei
TTITLE19=Dixos tin kardoula sou 
TTITLE20=To Sakkaki mou ke an Stazei
TTITLE21=Sto Kapilio
TTITLE22=O Ouranos fevgei Varis
EXTD=
EXTT0=
EXTT1=
EXTT2=
EXTT3=
EXTT4=
EXTT5=
EXTT6=
EXTT7=
EXTT8=
EXTT9=
EXTT10=
EXTT11=
EXTT12=
EXTT13=
EXTT14=
EXTT15=
EXTT16=
EXTT17=
EXTT18=
EXTT19=
EXTT20=
EXTT21=
EXTT22=
PLAYORDER=
